HIERARCHY
ROOT Hips
{
	OFFSET 0.000000 0.000000 0.000000
	CHANNELS 6 Xposition Yposition Zposition Zrotation Yrotation Xrotation 
	JOINT LeftUpLeg_virtual
	{
		OFFSET 0.000000 0.000000 0.000000
		CHANNELS 3 Zrotation Yrotation Xrotation
		JOINT LeftUpLeg
		{
			OFFSET 8.479694 -4.795517 -0.379053
			CHANNELS 3 Zrotation Yrotation Xrotation
			JOINT LeftLeg
			{
				OFFSET 0.485052 -32.551468 0.112863
				CHANNELS 3 Zrotation Yrotation Xrotation
				JOINT LeftFoot
				{
					OFFSET 0.438033 -32.635670 -3.012641
					CHANNELS 3 Zrotation Yrotation Xrotation
					JOINT LeftToeBase
					{
						OFFSET 0.970169 -13.225353 11.864223
						CHANNELS 3 Zrotation Yrotation Xrotation
						End Site
						{
							OFFSET 0.000000 0.000000 0.000000
						}
					}
				}
			}
		}
	}
	JOINT RightUpLeg_virtual
	{
		OFFSET 0.000000 0.000000 0.000000
		CHANNELS 3 Zrotation Yrotation Xrotation
		JOINT RightUpLeg
		{
			OFFSET -8.479694 -4.795517 -0.379053
			CHANNELS 3 Zrotation Yrotation Xrotation
			JOINT RightLeg
			{
				OFFSET -0.484100 -32.551483 0.112903
				CHANNELS 3 Zrotation Yrotation Xrotation
				JOINT RightFoot
				{
					OFFSET -0.438985 -32.635651 -3.012681
					CHANNELS 3 Zrotation Yrotation Xrotation
					JOINT RightToeBase
					{
						OFFSET -0.970169 -13.225354 11.864223
						CHANNELS 3 Zrotation Yrotation Xrotation
						End Site
						{
							OFFSET 0.000000 0.000000 0.000000
						}
					}
				}
			}
		}
	}
	JOINT Spine_virtual
	{
		OFFSET 0.000000 0.000000 0.000000
		CHANNELS 3 Zrotation Yrotation Xrotation
		JOINT Spine
		{
			OFFSET 0.000000 7.722015 1.166203
			CHANNELS 3 Zrotation Yrotation Xrotation
			JOINT Spine1
			{
				OFFSET 0.000000 12.024086 0.248766
				CHANNELS 3 Zrotation Yrotation Xrotation
				JOINT Spine2
				{
					OFFSET -0.000000 11.503036 -0.491240
					CHANNELS 3 Zrotation Yrotation Xrotation
					JOINT Neck_virtual
					{
						OFFSET 0.000000 0.000000 0.000000
						CHANNELS 3 Zrotation Yrotation Xrotation
						JOINT Neck
						{
							OFFSET 0.000000 18.430687 -3.123054
							CHANNELS 3 Zrotation Yrotation Xrotation
							JOINT Head
							{
								OFFSET -0.000000 9.051071 1.034021
								CHANNELS 3 Zrotation Yrotation Xrotation
								End Site
								{
									OFFSET 0.000000 0.000000 0.000000
								}
							}
						}
					}
					JOINT LeftShoulder_virtual
					{
						OFFSET 0.000000 0.000000 0.000000
						CHANNELS 3 Zrotation Yrotation Xrotation
						JOINT LeftShoulder
						{
							OFFSET 6.197824 13.665230 -4.064723
							CHANNELS 3 Zrotation Yrotation Xrotation
							JOINT LeftArm
							{
								OFFSET 7.778132 -0.187073 -1.709282
								CHANNELS 3 Zrotation Yrotation Xrotation
								JOINT LeftForeArm
								{
									OFFSET 21.954697 0.000000 -2.041093
									CHANNELS 3 Zrotation Yrotation Xrotation
									JOINT LeftHand
									{
										OFFSET 22.992908 0.000000 -0.870901
										CHANNELS 3 Zrotation Yrotation Xrotation
										End Site
										{
											OFFSET 0.000000 0.000000 0.000000
										}
									}
								}
							}
						}
					}
					JOINT RightShoulder_virtual
					{
						OFFSET 0.000000 0.000000 0.000000
						CHANNELS 3 Zrotation Yrotation Xrotation
						JOINT RightShoulder
						{
							OFFSET -6.197824 13.665230 -4.064723
							CHANNELS 3 Zrotation Yrotation Xrotation
							JOINT RightArm
							{
								OFFSET -7.778132 -0.187073 -1.709282
								CHANNELS 3 Zrotation Yrotation Xrotation
								JOINT RightForeArm
								{
									OFFSET -21.954697 0.000000 -2.041093
									CHANNELS 3 Zrotation Yrotation Xrotation
									JOINT RightHand
									{
										OFFSET -22.992908 0.000000 -0.870901
										CHANNELS 3 Zrotation Yrotation Xrotation
										End Site
										{
											OFFSET 0.000000 0.000000 0.000000
										}
									}
								}
							}
						}
					}
				}
			}
		}
	}
}
MOTION
Frames: 11
Frame Time: 0.033333
-15.339728 81.451363 -49.243530 179.702591 -51.732976 -179.729830 -4.329024 -3.069043 16.480656 0.555008 6.139777 -40.580565 4.563562 6.093386 45.143968 -7.843077 -9.681655 -4.257807 0.000000 0.000000 0.000000 -0.627506 -5.193940 16.155551 5.446984 -19.206092 -33.587090 1.543904 1.893093 49.033791 11.595127 7.777873 -0.597418 0.000000 0.000000 0.000000 2.199146 -2.718565 9.932951 3.494821 5.619706 0.062236 -0.044489 -3.789070 10.986306 0.024425 -0.007264 0.004844 0.567328 -3.472030 9.324172 4.777999 -6.248873 -16.698918 0.000000 0.000000 0.000000 2.046389 -2.849761 5.943645 4.814999 -5.420564 7.632642 -67.070176 -23.711000 42.546211 -162.671815 -84.951038 -166.690712 0.000000 0.000000 0.000000 -2.392461 -1.138996 5.181871 28.234125 13.813361 9.561754 40.066064 35.805272 -27.443741 -8.356328 32.700203 -8.550384 0.000000 0.000000 0.000000 
-15.455700 81.040405 -48.092339 179.749542 -49.538918 -179.935815 -3.795682 -2.831271 16.357553 -1.192048 7.672159 -41.382484 4.815607 6.856761 46.347680 -7.159313 -9.298064 -4.573995 0.000000 0.000000 0.000000 0.043865 -5.384829 15.998970 5.102132 -18.575067 -32.370435 1.197293 1.886198 47.363073 10.912612 7.699317 -3.918068 0.000000 0.000000 0.000000 3.026992 -2.542246 9.684437 4.919798 5.735624 0.308190 -0.061614 -3.927010 11.005205 0.068396 -0.008296 -0.012839 0.530863 -3.633399 9.382380 5.135200 -6.452534 -16.671858 0.000000 0.000000 0.000000 1.959886 -3.051058 6.040503 4.513181 -4.927207 7.737218 -66.179308 -22.688548 41.291178 -154.019823 -85.055813 -175.677711 0.000000 0.000000 0.000000 -2.498451 -1.307621 5.155598 28.183618 13.897697 9.688295 38.251447 38.632226 -28.500095 -8.052499 31.431547 -8.797475 0.000000 0.000000 0.000000 
-15.556557 80.591621 -46.682869 179.658017 -46.967536 -179.848006 -3.435900 -2.324734 16.143623 -2.501064 9.085982 -42.586233 4.349528 6.635612 47.464460 -8.175782 -10.427760 -3.915894 0.000000 0.000000 0.000000 0.877694 -5.632511 15.594876 4.480874 -17.659796 -32.268423 0.816747 1.895445 46.216881 9.911742 7.195659 -7.561927 0.000000 0.000000 0.000000 3.646707 -2.531413 9.610622 6.420766 5.798069 0.539764 -0.130155 -4.029647 11.013659 0.015740 0.037476 -0.029239 0.521506 -3.719985 9.475524 5.487693 -6.711311 -16.575857 0.000000 0.000000 0.000000 1.930563 -3.030391 6.058807 4.206720 -4.297138 8.135009 -65.244241 -22.001824 40.066354 -146.568292 -85.262816 176.213266 0.000000 0.000000 0.000000 -2.551172 -1.399436 5.351671 28.499412 14.084376 9.507803 36.824664 41.747096 -28.581961 -7.456578 30.265067 -8.734203 0.000000 0.000000 0.000000 
-15.673472 80.251373 -45.132610 179.914764 -44.405273 179.873974 -2.837488 -2.094687 16.011010 -3.254852 9.755285 -43.575972 4.026252 6.005344 48.269661 -9.049615 -11.372981 -3.828254 0.000000 0.000000 0.000000 1.796000 -5.516584 15.162755 3.464399 -16.180342 -32.513271 0.283554 1.929640 45.661372 8.358547 5.425785 -9.230394 0.000000 0.000000 0.000000 4.417257 -2.342278 9.736152 8.043701 5.774469 0.880799 -0.162847 -4.178831 11.035699 0.002579 0.073585 -0.050865 0.526657 -3.931525 9.497075 6.004825 -6.975358 -16.491560 0.000000 0.000000 0.000000 1.883821 -3.227327 6.110206 4.193862 -3.839192 8.336208 -64.351652 -21.605020 39.086379 -136.123430 -85.365869 164.754149 0.000000 0.000000 0.000000 -2.591305 -1.610210 5.305677 29.191655 14.083503 9.649762 35.452770 44.841824 -28.293791 -7.033736 29.525887 -8.774700 0.000000 0.000000 0.000000 
-15.892542 80.066971 -43.569675 179.839796 -41.477881 179.835725 -2.227711 -2.153485 15.906279 -3.150260 9.355355 -44.261924 3.756265 4.965339 49.597774 -10.066017 -12.514569 -4.059861 0.000000 0.000000 0.000000 2.446489 -5.210297 14.672650 2.029532 -13.975395 -32.956790 -0.052324 2.257153 45.271774 7.199725 3.753475 -9.410165 0.000000 0.000000 0.000000 4.902785 -2.158730 9.825757 9.377246 5.630403 1.229358 -0.169519 -4.365352 11.035092 0.056504 0.056284 -0.056356 0.488062 -4.055775 9.512964 6.421904 -6.959214 -16.233032 0.000000 0.000000 0.000000 1.858861 -3.394725 6.084452 4.439339 -3.564630 8.474783 -63.686098 -21.748477 38.615475 -122.944279 -85.581505 150.258274 0.000000 0.000000 0.000000 -2.599063 -1.800427 5.340986 29.937662 14.099625 9.462422 34.575722 47.623617 -27.424321 -6.320275 29.185135 -8.544620 0.000000 0.000000 0.000000 
-16.276337 80.057640 -42.121487 179.563078 -38.467994 179.906172 -1.665812 -2.129609 15.729075 -2.123390 8.075935 -44.458340 3.652407 3.801764 52.122328 -10.713060 -13.331021 -4.895348 0.000000 0.000000 0.000000 2.852280 -4.955181 14.135934 0.323118 -11.309191 -33.393304 -0.369756 2.404545 44.664782 6.578177 2.524673 -8.338117 0.000000 0.000000 0.000000 5.135237 -1.910301 9.718602 10.374041 5.351662 1.535919 -0.123017 -4.534044 11.031631 -0.016789 0.029153 -0.020996 0.642521 -4.134766 9.394672 6.813928 -7.233133 -16.007568 0.000000 0.000000 0.000000 2.033881 -3.602865 6.029760 4.717099 -3.512676 8.572566 -63.226091 -22.610826 38.755378 -107.557400 -85.605998 133.217526 0.000000 0.000000 0.000000 -2.418198 -1.968456 5.161424 30.694706 13.958623 9.401434 34.051276 49.933061 -26.246375 -5.731502 29.288186 -8.361501 0.000000 0.000000 0.000000 
-16.780466 80.207474 -40.783497 179.606395 -35.311347 179.906541 -1.055222 -1.930337 15.336551 -0.608471 7.082738 -44.252208 4.115243 3.017651 55.760654 -9.760276 -12.310782 -5.456017 0.000000 0.000000 0.000000 3.044466 -4.645563 13.779399 -1.812521 -7.079160 -33.711812 -0.231836 2.766685 43.835963 7.018394 2.248220 -7.177325 0.000000 0.000000 0.000000 5.406300 -1.464909 9.314882 11.120506 4.918286 1.691450 -0.067961 -4.706191 10.991811 0.041009 0.012439 -0.028050 0.699577 -4.432385 9.326511 7.092947 -7.288847 -15.684163 0.000000 0.000000 0.000000 2.113691 -3.820061 5.939533 5.021009 -3.759171 8.630122 -63.096557 -24.042061 39.366075 -89.925560 -85.492672 113.635408 0.000000 0.000000 0.000000 -2.331812 -2.175308 5.072503 31.283919 13.839231 9.146656 33.985187 51.933039 -24.852492 -5.091522 29.619959 -7.926665 0.000000 0.000000 0.000000 
-17.413048 80.483650 -39.447559 179.828267 -32.398903 179.939353 -0.533809 -1.774258 14.898837 1.011938 6.570300 -43.315697 4.608551 2.406939 58.814458 -8.403472 -10.620483 -4.930858 0.000000 0.000000 0.000000 3.455956 -4.005834 13.565282 -3.800487 -3.827925 -34.084447 -0.278500 3.282392 42.618372 7.997382 2.159133 -5.110294 0.000000 0.000000 0.000000 5.648759 -0.867187 8.739960 11.587127 4.546690 1.659390 0.054032 -4.990465 10.921321 0.027063 -0.149276 -0.043271 0.769240 -4.605939 9.293989 7.223464 -7.201696 -15.314196 0.000000 0.000000 0.000000 2.180114 -4.044397 5.846510 5.319056 -4.111478 8.404797 -63.268234 -25.746338 40.216929 -71.556190 -85.104232 93.103722 0.000000 0.000000 0.000000 -2.207729 -2.300018 5.003386 31.773825 13.604713 8.777016 34.856381 53.549305 -22.698361 -4.604340 30.065704 -7.699943 0.000000 0.000000 0.000000 
-18.116442 80.779625 -38.063824 179.971878 -29.165803 179.856530 -0.308656 -1.288533 14.622528 3.043989 6.026244 -41.259766 4.518397 1.632352 60.598121 -8.167987 -10.113797 -4.695395 0.000000 0.000000 0.000000 3.566039 -3.047802 13.572768 -5.448587 -0.974159 -34.612284 -0.470458 3.845335 41.365818 9.147993 1.984474 -2.716461 0.000000 0.000000 0.000000 5.682857 -0.162317 8.260683 11.671967 3.588461 1.576214 0.165064 -4.972040 10.924755 0.030277 -0.026318 -0.012347 0.766423 -4.741381 9.126941 7.271521 -6.950820 -14.935305 0.000000 0.000000 0.000000 2.187625 -4.117305 5.665287 5.507719 -4.520293 8.122115 -63.458243 -27.583104 41.119583 -52.854312 -84.279261 72.104668 0.000000 0.000000 0.000000 -2.154757 -2.466875 4.899333 32.151688 13.778275 8.526663 36.460287 55.116929 -19.869691 -4.113253 30.937922 -6.987752 0.000000 0.000000 0.000000 
-18.805498 80.967140 -36.663208 -179.970143 -25.491135 -179.994227 -0.322258 -0.277137 14.392592 5.140943 5.459462 -38.574661 4.202277 0.989672 61.412724 -8.077161 -9.730720 -4.413885 0.000000 0.000000 0.000000 3.639024 -1.426370 13.648450 -7.310412 1.698706 -35.472458 -0.448655 4.098844 40.283418 10.122982 1.570630 -1.078869 0.000000 0.000000 0.000000 5.576114 1.008149 7.888708 11.394657 2.909306 1.219968 0.241593 -4.987137 10.927048 -0.008812 0.028475 -0.013905 0.836263 -4.806168 9.083757 7.166835 -6.706162 -14.587565 0.000000 0.000000 0.000000 2.246420 -4.170657 5.599002 5.456904 -5.086392 7.803643 -63.610351 -29.258778 41.759486 -37.211352 -82.654257 54.163096 0.000000 0.000000 0.000000 -2.076848 -2.495080 4.853733 32.434338 13.846584 8.189383 39.240154 56.360108 -15.676602 -3.862798 32.380226 -6.527361 0.000000 0.000000 0.000000 
-19.516247 80.997963 -35.289051 -179.794211 -21.969172 179.957794 -0.567096 0.719560 14.271361 7.098537 4.738101 -35.502166 3.753855 0.242417 61.612077 -8.092589 -9.522148 -4.281867 0.000000 0.000000 0.000000 3.493406 0.106369 13.970910 -8.687598 3.878242 -36.227699 -0.484132 4.657710 38.716173 11.229569 1.347978 0.359331 0.000000 0.000000 0.000000 5.460449 2.153402 7.446663 10.920321 2.095584 1.110947 0.331972 -5.030888 10.879025 -0.016801 0.010481 0.015766 0.830648 -4.869193 8.953310 6.886782 -6.236723 -14.296470 0.000000 0.000000 0.000000 2.208808 -4.232026 5.465838 5.150563 -5.720468 7.382087 -63.665218 -30.801793 42.364931 -26.271366 -80.563557 40.997705 0.000000 0.000000 0.000000 -2.014764 -2.656637 4.765175 32.528988 13.972140 7.882740 42.682621 57.171026 -10.960629 -3.631637 34.453885 -5.836561 0.000000 0.000000 0.000000 
